Coordinates
version=1
nRows=17
nColumns=63
inDegrees=yes

Units are S.I. units (second, meters, Newtons, ...)
If the header above contains a line with 'inDegrees', this indicates whether rotational values are in degrees (yes) or radians (no).

endheader
time	pelvis_tilt	pelvis_list	pelvis_rotation	pelvis_tx	pelvis_ty	pelvis_tz	hip_flexion_r	hip_adduction_r	hip_rotation_r	knee_angle_r	knee_angle_r_beta	ankle_angle_r	subtalar_angle_r	mtp_angle_r	hip_flexion_l	hip_adduction_l	hip_rotation_l	knee_angle_l	knee_angle_l_beta	ankle_angle_l	subtalar_angle_l	mtp_angle_l	L5_S1_Flex_Ext	L5_S1_Lat_Bending	L5_S1_axial_rotation	L4_L5_Flex_Ext	L4_L5_Lat_Bending	L4_L5_axial_rotation	L3_L4_Flex_Ext	L3_L4_Lat_Bending	L3_L4_axial_rotation	L2_L3_Flex_Ext	L2_L3_Lat_Bending	L2_L3_axial_rotation	L1_L2_Flex_Ext	L1_L2_Lat_Bending	L1_L2_axial_rotation	L1_T12_Flex_Ext	L1_T12_Lat_Bending	L1_T12_axial_rotation	Abs_r3	Abs_r2	Abs_r1	Abs_t1	Abs_t2	neck_flexion	neck_bending	neck_rotation	arm_flex_r	arm_add_r	arm_rot_r	elbow_flex_r	pro_sup_r	wrist_flex_r	wrist_dev_r	arm_flex_l	arm_add_l	arm_rot_l	elbow_flex_l	pro_sup_l	wrist_flex_l	wrist_dev_l
2.571429	-2.221459	2.584020	91.538712	0.246062	1.084629	0.492475	11.952845	1.080988	7.657092	35.479071	0.619227	38.563486	-4.883470	0.000000	13.092009	-3.263753	-9.685001	37.000636	0.645783	40.745799	7.981886	0.000000	-0.646615	0.191443	13.334147	-1.200829	0.254620	14.167531	-1.062324	0.465475	14.167531	-0.739017	0.465475	11.667379	-0.600447	0.390391	10.833995	-0.369476	0.296546	10.000610	-4.618709	2.165645	74.160526	0.000000	0.000000	2.918141	5.043477	-44.769243	-19.387389	-21.948434	-123.231014	149.636461	68.433811	22.459888	6.942643	87.653295	40.598911	153.869637	0.035066	0.734311	-69.939279	-24.739012
2.591837	-2.405180	2.316720	91.338434	0.247209	1.081884	0.492342	12.691078	1.095941	7.972628	36.328606	0.634054	39.165455	-4.955698	0.000000	14.040374	-3.257856	-9.620789	38.184456	0.666444	41.673397	7.852691	0.000000	-0.654105	0.160806	13.373956	-1.214739	0.213873	14.209828	-1.074630	0.390985	14.209828	-0.747577	0.390985	11.702211	-0.607402	0.327917	10.866339	-0.373756	0.249089	10.030467	-4.672209	1.819075	74.381929	0.000000	0.000000	2.688816	4.956813	-44.770194	-19.107748	-21.851824	-122.927701	149.634389	70.003817	21.733815	7.536627	87.534296	40.518433	152.984450	0.035213	0.725318	-69.939764	-24.733773
2.612245	-2.604138	2.050836	91.084203	0.248349	1.079601	0.492001	13.332203	1.067051	8.281152	37.012167	0.645984	39.667696	-4.891821	0.000000	14.828228	-3.232574	-9.693549	39.116305	0.682708	42.434926	7.849430	0.000000	-0.659716	0.125371	13.415288	-1.225158	0.166743	14.253743	-1.083847	0.304827	14.253743	-0.753989	0.304827	11.738377	-0.612612	0.255657	10.899921	-0.376961	0.194200	10.061466	-4.712282	1.418222	74.611805	0.000000	0.000000	2.500794	4.857076	-44.771308	-18.858982	-21.795774	-122.693111	149.632792	71.071765	21.137032	7.832142	87.495638	40.425615	152.286437	0.035343	0.717844	-69.940158	-24.729213
2.632653	-2.825974	1.775551	90.771507	0.249476	1.077771	0.491491	13.900782	0.996888	8.627050	37.544569	0.655276	40.064597	-4.760338	0.000000	15.469546	-3.178584	-9.894110	39.795146	0.694556	43.019011	7.931808	0.000000	-0.662348	0.082579	13.455464	-1.230046	0.109830	14.296430	-1.088171	0.200782	14.296430	-0.756997	0.200782	11.773531	-0.615056	0.168395	10.932564	-0.378466	0.127915	10.091598	-4.731084	0.934149	74.835253	0.000000	0.000000	2.374600	4.765938	-44.772606	-18.615298	-21.750608	-122.517519	149.634347	71.609358	20.747833	7.723550	87.553614	40.319709	151.870403	0.035451	0.713202	-69.940406	-24.725773
2.653061	-3.035352	1.543318	90.422168	0.250470	1.076437	0.490888	14.345622	0.904695	8.922893	37.925532	0.661925	40.374972	-4.477824	0.000000	15.926280	-3.128329	-10.200495	40.244255	0.702395	43.448053	8.089748	0.000000	-0.665532	0.040918	13.490989	-1.235960	0.054421	14.334175	-1.093403	0.099488	14.334175	-0.760637	0.099488	11.804615	-0.618013	0.083440	10.961428	-0.380285	0.063382	10.118241	-4.753829	0.462871	75.032831	0.000000	0.000000	2.306984	4.659536	-44.773996	-18.398132	-21.744872	-122.452658	149.637713	71.704498	20.527660	7.125829	87.710038	40.216052	151.713621	0.035535	0.715794	-69.940468	-24.723693
2.673469	-3.220600	1.331259	90.055930	0.251363	1.075499	0.490268	14.710978	0.808665	9.175046	38.188773	0.666520	40.611126	-4.118438	0.000000	16.252883	-3.096799	-10.572034	40.510434	0.707040	43.724011	8.282497	0.000000	-0.666587	-0.000278	13.519680	-1.237919	-0.000370	14.364660	-1.095136	-0.000677	14.364660	-0.761842	-0.000677	11.829720	-0.618993	-0.000568	10.984740	-0.380888	-0.000431	10.139760	-4.761366	-0.003149	75.192404	0.000000	0.000000	2.330379	4.538898	-44.775750	-18.170812	-21.778067	-122.527254	149.647189	71.388216	20.492353	6.134623	87.961017	40.111148	151.798849	0.035587	0.721347	-69.940380	-24.723075
2.693878	-3.417935	1.124647	89.705041	0.252194	1.074867	0.489598	15.019485	0.702210	9.494331	38.366337	0.669619	40.777437	-3.909027	0.000000	16.475798	-3.026723	-10.910631	40.604108	0.708675	43.838800	8.369713	0.000000	-0.666995	-0.046323	13.543454	-1.238676	-0.061610	14.389920	-1.095806	-0.112630	14.389920	-0.762308	-0.112630	11.850522	-0.619371	-0.094462	11.004056	-0.381121	-0.071754	10.157591	-4.764277	-0.524015	75.324629	0.000000	0.000000	2.460985	4.450307	-44.777963	-17.923785	-21.777347	-122.745439	149.661519	70.923328	20.565352	4.690533	88.277815	40.011537	152.051815	0.035601	0.728950	-69.940191	-24.723374
2.714286	-3.617827	0.936711	89.384124	0.252945	1.074484	0.488918	15.270284	0.583267	9.807880	38.482937	0.671654	40.893287	-3.780038	0.000000	16.603282	-2.929603	-11.223736	40.560607	0.707916	43.831093	8.384167	0.000000	-0.667045	-0.092427	13.569800	-1.238769	-0.122928	14.417913	-1.095888	-0.224728	14.417913	-0.762365	-0.224728	11.873575	-0.619418	-0.188478	11.025463	-0.381149	-0.143170	10.177350	-4.764633	-1.045555	75.471158	0.000000	0.000000	2.634847	4.390804	-44.780677	-17.702237	-21.739216	-123.125521	149.679883	70.659898	20.563365	2.861149	88.612141	39.931613	152.341214	0.035582	0.736958	-69.939981	-24.724622
2.734694	-3.814227	0.757623	89.103725	0.253601	1.074278	0.488226	15.479464	0.453003	10.086802	38.550065	0.672826	40.982464	-3.704109	0.000000	16.662446	-2.808832	-11.501512	40.406353	0.705224	43.741189	8.339828	0.000000	-0.663310	-0.136248	13.604052	-1.231833	-0.181210	14.454306	-1.089752	-0.331274	14.454306	-0.758097	-0.331274	11.903546	-0.615949	-0.277837	11.053293	-0.379015	-0.211048	10.203039	-4.737956	-1.541265	75.661658	0.000000	0.000000	2.805902	4.378955	-44.783908	-17.552931	-21.652044	-123.661330	149.697886	70.611467	20.563775	0.934329	88.911463	39.882865	152.603868	0.035542	0.744091	-69.939784	-24.726756
2.755102	-4.007340	0.610144	88.880964	0.254211	1.074213	0.487584	15.632653	0.324352	10.354639	38.586740	0.673466	41.034696	-3.756388	0.000000	16.650509	-2.660319	-11.715138	40.171731	0.701129	43.593148	8.225128	0.000000	-0.661274	-0.176997	13.634984	-1.228051	-0.235406	14.487170	-1.086406	-0.430350	14.487170	-0.755770	-0.430350	11.930611	-0.614059	-0.360932	11.078424	-0.377852	-0.274168	10.226238	-4.723411	-2.002221	75.833688	0.000000	0.000000	2.955660	4.386376	-44.787342	-17.419171	-21.538778	-124.128030	149.713306	70.864585	20.468214	-0.947105	89.171322	39.835547	152.820799	0.035492	0.751001	-69.939620	-24.729413
2.775510	-4.176804	0.495463	88.706876	0.254759	1.074226	0.487017	15.737277	0.211714	10.580309	38.601099	0.673716	41.057114	-3.876848	0.000000	16.590401	-2.509074	-11.864590	39.899195	0.696372	43.425087	8.061980	0.000000	-0.659705	-0.211985	13.658823	-1.225138	-0.281939	14.512500	-1.083830	-0.515419	14.512500	-0.753977	-0.515419	11.951470	-0.612602	-0.432279	11.097794	-0.376956	-0.328364	10.244118	-4.712208	-2.398012	75.966278	0.000000	0.000000	3.069140	4.402795	-44.790573	-17.297009	-21.427304	-124.441428	149.719541	71.261299	20.353762	-2.539694	89.382524	39.787643	153.006832	0.035448	0.757465	-69.939467	-24.732086
2.795918	-4.314539	0.417071	88.552632	0.255279	1.074260	0.486546	15.802097	0.129625	10.780064	38.608120	0.673839	41.056909	-4.039905	0.000000	16.499745	-2.376225	-11.975973	39.629461	0.691665	43.267837	7.879929	0.000000	-0.659904	-0.240440	13.674522	-1.225509	-0.319785	14.529179	-1.084157	-0.584606	14.529179	-0.754205	-0.584606	11.965207	-0.612787	-0.490306	11.110549	-0.377069	-0.372442	10.255891	-4.713631	-2.719908	76.053588	0.000000	0.000000	3.142945	4.412519	-44.793320	-17.173665	-21.333001	-124.501905	149.714977	71.646639	20.180356	-3.773206	89.560501	39.729475	153.194831	0.035415	0.763391	-69.939318	-24.734275
2.816327	-4.441285	0.369387	88.450142	0.255768	1.074277	0.486151	15.832585	0.051817	10.929256	38.613001	0.673924	41.062648	-4.215992	0.000000	16.402357	-2.238302	-12.021354	39.383850	0.687378	43.139292	7.705848	0.000000	-0.663718	-0.265791	13.671508	-1.232591	-0.353502	14.525977	-1.090422	-0.646245	14.525977	-0.758563	-0.646245	11.962569	-0.616329	-0.542001	11.108100	-0.379248	-0.411711	10.253631	-4.740871	-3.006683	76.036826	0.000000	0.000000	3.161614	4.425248	-44.795463	-17.005204	-21.254671	-124.260922	149.707144	71.916106	19.944046	-4.620761	89.719114	39.640631	153.391916	0.035406	0.769465	-69.939172	-24.735994
2.836735	-4.532771	0.360691	88.362311	0.256245	1.074274	0.485812	15.826181	0.012102	11.058763	38.620622	0.674057	41.082128	-4.394160	0.000000	16.299910	-2.131326	-12.025864	39.190205	0.683998	43.051966	7.559760	0.000000	-0.669882	-0.283096	13.665963	-1.244037	-0.376517	14.520085	-1.100548	-0.688319	14.520085	-0.765608	-0.688319	11.957717	-0.622052	-0.577289	11.103595	-0.382770	-0.438515	10.249472	-4.784897	-3.202436	76.005984	0.000000	0.000000	3.141842	4.413513	-44.797256	-16.872452	-21.192697	-123.841792	149.693916	71.979024	19.677656	-5.194705	89.854596	39.544948	153.578688	0.035408	0.774323	-69.939027	-24.737081
2.857143	-4.610047	0.378014	88.316034	0.256693	1.074242	0.485481	15.795442	-0.016212	11.151460	38.638866	0.674375	41.145152	-4.556090	0.000000	16.209962	-2.028418	-11.963279	39.045098	0.681466	43.008568	7.428909	0.000000	-0.677726	-0.295111	13.659551	-1.258606	-0.392497	14.513273	-1.113437	-0.717533	14.513273	-0.774574	-0.717533	11.952107	-0.629337	-0.601790	11.098385	-0.387253	-0.457127	10.244663	-4.840932	-3.338353	75.970323	0.000000	0.000000	3.079918	4.382629	-44.798973	-16.799676	-21.124645	-123.318720	149.682292	71.771141	19.403938	-5.488262	89.958016	39.447154	153.716040	0.035414	0.778422	-69.938935	-24.737792
2.877551	-4.670307	0.426059	88.276329	0.257162	1.074205	0.485099	15.729093	-0.020249	11.252649	38.661380	0.674768	41.253537	-4.707468	0.000000	16.110751	-1.953084	-11.912139	38.939264	0.679618	43.033343	7.378270	0.000000	-0.686506	-0.300461	13.667795	-1.274910	-0.399614	14.522032	-1.127861	-0.730542	14.522032	-0.784608	-0.730542	11.959321	-0.637490	-0.612701	11.105083	-0.392270	-0.465415	10.250846	-4.903644	-3.398880	76.016175	0.000000	0.000000	2.970299	4.320213	-44.800902	-16.819130	-21.050685	-122.819549	149.674182	71.397311	19.155275	-5.551628	90.008789	39.363237	153.759380	0.035422	0.779978	-69.938910	-24.738189
2.897959	-4.738977	0.488257	88.227054	0.257671	1.074183	0.484582	15.640868	-0.025061	11.378786	38.690970	0.675285	41.403916	-4.843269	0.000000	15.996782	-1.874306	-11.873356	38.837463	0.677842	43.110233	7.354251	0.000000	-0.694732	-0.303353	13.702869	-1.290188	-0.403459	14.559299	-1.141376	-0.737572	14.559299	-0.794010	-0.737572	11.990011	-0.645129	-0.618597	11.133581	-0.396970	-0.469893	10.277152	-4.962404	-3.431586	76.211249	0.000000	0.000000	2.835047	4.274105	-44.803311	-16.959226	-20.926771	-122.502274	149.671917	70.808040	19.071603	-5.359351	89.990292	39.321129	153.689033	0.035426	0.779964	-69.938984	-24.738458
